<?xml version="1.0" standalone="no"?>
<!DOCTYPE svg PUBLIC "-//W3C//DTD SVG 20010904//EN"
 "http://www.w3.org/TR/2001/REC-SVG-20010904/DTD/svg10.dtd">
<svg version="1.0" xmlns="http://www.w3.org/2000/svg"
 width="1280.000000pt" height="1280.000000pt" viewBox="0 0 1280.000000 1280.000000"
 preserveAspectRatio="xMidYMid meet">
<metadata>
Created by potrace 1.15, written by Peter Selinger 2001-2017
</metadata>
<g transform="translate(0.000000,1280.000000) scale(0.100000,-0.100000)"
fill="#000000" stroke="none">
<path d="M7335 8234 c-348 -52 -615 -160 -823 -333 -80 -66 -182 -220 -182
-275 0 -28 23 -40 50 -26 11 6 45 42 76 81 32 38 87 95 123 125 84 71 242 148
343 168 100 21 269 20 389 0 188 -32 631 -152 645 -175 3 -6 -83 -101 -193
-212 -283 -289 -363 -409 -458 -685 -52 -153 -242 -642 -311 -800 -65 -150
-182 -381 -249 -492 -260 -434 -571 -660 -893 -648 -117 4 -171 27 -238 101
-64 71 -87 139 -91 272 -6 150 23 262 112 440 76 154 163 272 279 382 149 141
282 215 452 253 95 21 114 32 114 68 l0 25 -127 -6 c-232 -9 -434 -90 -658
-263 -417 -321 -559 -864 -308 -1180 134 -167 452 -257 695 -195 41 11 133 49
204 84 446 224 772 549 1038 1034 80 147 149 297 257 561 177 433 430 1014
473 1086 98 165 174 245 288 301 106 53 140 81 136 113 -4 35 -28 39 -88 13
-27 -12 -65 -21 -85 -21 -20 0 -139 34 -263 74 -334 110 -404 126 -552 131
-69 2 -138 1 -155 -1z"/>
</g>
</svg>
